<svg width="24" height="24" viewBox="0 0 24 24" fill="none" xmlns="http://www.w3.org/2000/svg">
<path d="M5.60156 8.39062C5.99219 8.79688 6.45312 9 6.98438 9C7.51562 9 7.98438 8.79688 8.39062 8.39062C8.79688 7.98437 9 7.51562 9 6.98438C9 6.45313 8.79688 5.99219 8.39062 5.60156C7.98438 5.21094 7.51562 5.01562 6.98438 5.01562C6.45312 5.01562 5.99219 5.21094 5.60156 5.60156C5.21094 5.99219 5.01562 6.45313 5.01562 6.98438C5.01562 7.51562 5.21094 7.98437 5.60156 8.39062ZM20.0156 3C20.2969 3 20.5312 3.09375 20.7188 3.28125C20.9062 3.46875 21 3.70312 21 3.98438V9.98438C21 10.2656 20.9062 10.5078 20.7188 10.7109C20.5312 10.9141 20.2969 11.0156 20.0156 11.0156H3.98438C3.70312 11.0156 3.46875 10.9141 3.28125 10.7109C3.09375 10.5078 3 10.2656 3 9.98438V3.98438C3 3.70312 3.09375 3.46875 3.28125 3.28125C3.46875 3.09375 3.70312 3 3.98438 3H20.0156ZM5.60156 18.3984C5.99219 18.7891 6.45312 18.9844 6.98438 18.9844C7.51562 18.9844 7.98438 18.7891 8.39062 18.3984C8.79688 18.0078 9 17.5469 9 17.0156C9 16.4844 8.79688 16.0156 8.39062 15.6094C7.98438 15.2031 7.51562 15 6.98438 15C6.45312 15 5.99219 15.2031 5.60156 15.6094C5.21094 16.0156 5.01562 16.4844 5.01562 17.0156C5.01562 17.5469 5.21094 18.0078 5.60156 18.3984ZM20.0156 12.9844C20.2969 12.9844 20.5312 13.0859 20.7188 13.2891C20.9062 13.4922 21 13.7344 21 14.0156V20.0156C21 20.2969 20.9062 20.5312 20.7188 20.7188C20.5312 20.9062 20.2969 21 20.0156 21H3.98438C3.70312 21 3.46875 20.9062 3.28125 20.7188C3.09375 20.5312 3 20.2969 3 20.0156V14.0156C3 13.7344 3.09375 13.4922 3.28125 13.2891C3.46875 13.0859 3.70312 12.9844 3.98438 12.9844H20.0156Z" fill="#64748B"/>
</svg>
